<svg width="475" height="376" viewBox="0 0 475 376" fill="none" xmlns="http://www.w3.org/2000/svg">
<line x1="329.374" y1="13.2191" x2="460.659" y2="119.343" stroke="#0064FF" stroke-width="18" stroke-linecap="round"/>
<line x1="329" y1="14" x2="329" y2="78" stroke="#0064FF" stroke-width="18" stroke-linecap="round"/>
<line x1="329" y1="163" x2="329" y2="229" stroke="#0064FF" stroke-width="18" stroke-linecap="round"/>
<line x1="196" y1="80" x2="196" y2="162" stroke="#0064FF" stroke-width="18" stroke-linecap="round"/>
<line x1="196" y1="79" x2="329" y2="79" stroke="#0064FF" stroke-width="18" stroke-linecap="round"/>
<line x1="196" y1="162" x2="329" y2="162" stroke="#0064FF" stroke-width="18" stroke-linecap="round"/>
<line x1="330.264" y1="228.836" x2="462.335" y2="120.736" stroke="#0064FF" stroke-width="18" stroke-linecap="round"/>
<rect x="202" y="85" width="142" height="69" fill="#0064FF"/>
<rect x="202" y="85" width="142" height="69" fill="#0064FF"/>
<rect x="202" y="85" width="142" height="69" fill="#0064FF"/>
<rect x="313" y="109" width="140" height="23" fill="#0064FF"/>
<rect x="313" y="109" width="140" height="23" fill="#0064FF"/>
<rect x="313" y="109" width="140" height="23" fill="#0064FF"/>
<rect x="320" y="26" width="38" height="186" fill="#0064FF"/>
<rect x="320" y="26" width="38" height="186" fill="#0064FF"/>
<rect x="320" y="26" width="38" height="186" fill="#0064FF"/>
<rect x="357" y="46" width="28" height="149" fill="#0064FF"/>
<rect x="357" y="46" width="28" height="149" fill="#0064FF"/>
<rect x="357" y="46" width="28" height="149" fill="#0064FF"/>
<rect x="385" y="69" width="27" height="104" fill="#0064FF"/>
<rect x="385" y="69" width="27" height="104" fill="#0064FF"/>
<rect x="385" y="69" width="27" height="104" fill="#0064FF"/>
<rect x="412" y="91" width="24" height="60" fill="#0064FF"/>
<rect x="412" y="91" width="24" height="60" fill="#0064FF"/>
<rect x="412" y="91" width="24" height="60" fill="#0064FF"/>
<line x1="147.022" y1="363.15" x2="15.0898" y2="257.833" stroke="black" stroke-width="18" stroke-linecap="round"/>
<line x1="147.392" y1="362.367" x2="146.999" y2="298.368" stroke="black" stroke-width="18" stroke-linecap="round"/>
<line x1="146.478" y1="213.369" x2="146.074" y2="147.371" stroke="black" stroke-width="18" stroke-linecap="round"/>
<line x1="279.985" y1="295.553" x2="279.482" y2="213.554" stroke="black" stroke-width="18" stroke-linecap="round"/>
<line x1="279.991" y1="296.553" x2="146.993" y2="297.368" stroke="black" stroke-width="18" stroke-linecap="round"/>
<line x1="279.482" y1="213.554" x2="146.485" y2="214.369" stroke="black" stroke-width="18" stroke-linecap="round"/>
<line x1="144.811" y1="147.543" x2="13.405" y2="256.45" stroke="black" stroke-width="18" stroke-linecap="round"/>
<rect x="273.954" y="290.59" width="142" height="69" transform="rotate(179.649 273.954 290.59)" fill="black"/>
<rect x="273.954" y="290.59" width="142" height="69" transform="rotate(179.649 273.954 290.59)" fill="black"/>
<rect x="273.954" y="290.59" width="142" height="69" transform="rotate(179.649 273.954 290.59)" fill="black"/>
<rect x="162.809" y="267.27" width="140" height="23" transform="rotate(179.649 162.809 267.27)" fill="black"/>
<rect x="162.809" y="267.27" width="140" height="23" transform="rotate(179.649 162.809 267.27)" fill="black"/>
<rect x="162.809" y="267.27" width="140" height="23" transform="rotate(179.649 162.809 267.27)" fill="black"/>
<rect x="156.318" y="350.312" width="38" height="186" transform="rotate(179.649 156.318 350.312)" fill="black"/>
<rect x="156.318" y="350.312" width="38" height="186" transform="rotate(179.649 156.318 350.312)" fill="black"/>
<rect x="156.318" y="350.312" width="38" height="186" transform="rotate(179.649 156.318 350.312)" fill="black"/>
<rect x="119.196" y="330.539" width="28" height="149" transform="rotate(179.649 119.196 330.539)" fill="black"/>
<rect x="119.196" y="330.539" width="28" height="149" transform="rotate(179.649 119.196 330.539)" fill="black"/>
<rect x="119.196" y="330.539" width="28" height="149" transform="rotate(179.649 119.196 330.539)" fill="black"/>
<rect x="91.0557" y="307.711" width="27" height="104" transform="rotate(179.649 91.0557 307.711)" fill="black"/>
<rect x="91.0557" y="307.711" width="27" height="104" transform="rotate(179.649 91.0557 307.711)" fill="black"/>
<rect x="91.0557" y="307.711" width="27" height="104" transform="rotate(179.649 91.0557 307.711)" fill="black"/>
<rect x="63.9211" y="285.877" width="24" height="60" transform="rotate(179.649 63.9211 285.877)" fill="black"/>
<rect x="63.9211" y="285.877" width="24" height="60" transform="rotate(179.649 63.9211 285.877)" fill="black"/>
<rect x="63.9211" y="285.877" width="24" height="60" transform="rotate(179.649 63.9211 285.877)" fill="black"/>
</svg>
