<svg width="475" height="369" viewBox="0 0 475 369" fill="none" xmlns="http://www.w3.org/2000/svg">
<line x1="329.374" y1="9.21907" x2="460.659" y2="115.343" stroke="#898989" stroke-width="18" stroke-linecap="round"/>
<line x1="329" y1="10" x2="329" y2="74" stroke="#898989" stroke-width="18" stroke-linecap="round"/>
<line x1="329" y1="159" x2="329" y2="225" stroke="#898989" stroke-width="18" stroke-linecap="round"/>
<line x1="196" y1="76" x2="196" y2="158" stroke="#898989" stroke-width="18" stroke-linecap="round"/>
<line x1="196" y1="75" x2="329" y2="75" stroke="#898989" stroke-width="18" stroke-linecap="round"/>
<line x1="196" y1="158" x2="329" y2="158" stroke="#898989" stroke-width="18" stroke-linecap="round"/>
<line x1="330.264" y1="224.836" x2="462.335" y2="116.736" stroke="#898989" stroke-width="18" stroke-linecap="round"/>
<rect x="202" y="81" width="142" height="69" fill="#898989"/>
<rect x="202" y="81" width="142" height="69" fill="#898989"/>
<rect x="202" y="81" width="142" height="69" fill="#898989"/>
<rect x="313" y="105" width="140" height="23" fill="#898989"/>
<rect x="313" y="105" width="140" height="23" fill="#898989"/>
<rect x="313" y="105" width="140" height="23" fill="#898989"/>
<rect x="320" y="22" width="38" height="186" fill="#898989"/>
<rect x="320" y="22" width="38" height="186" fill="#898989"/>
<rect x="320" y="22" width="38" height="186" fill="#898989"/>
<rect x="357" y="42" width="28" height="149" fill="#898989"/>
<rect x="357" y="42" width="28" height="149" fill="#898989"/>
<rect x="357" y="42" width="28" height="149" fill="#898989"/>
<rect x="385" y="65" width="27" height="104" fill="#898989"/>
<rect x="385" y="65" width="27" height="104" fill="#898989"/>
<rect x="385" y="65" width="27" height="104" fill="#898989"/>
<rect x="412" y="87" width="24" height="60" fill="#898989"/>
<rect x="412" y="87" width="24" height="60" fill="#898989"/>
<rect x="412" y="87" width="24" height="60" fill="#898989"/>
<line x1="147.022" y1="359.15" x2="15.0898" y2="253.833" stroke="#FF4A11" stroke-width="18" stroke-linecap="round"/>
<line x1="147.392" y1="358.367" x2="146.999" y2="294.368" stroke="#FF4A11" stroke-width="18" stroke-linecap="round"/>
<line x1="146.478" y1="209.369" x2="146.074" y2="143.371" stroke="#FF4A11" stroke-width="18" stroke-linecap="round"/>
<line x1="279.985" y1="291.553" x2="279.482" y2="209.554" stroke="#FF4A11" stroke-width="18" stroke-linecap="round"/>
<line x1="279.991" y1="292.553" x2="146.993" y2="293.368" stroke="#FF4A11" stroke-width="18" stroke-linecap="round"/>
<line x1="279.482" y1="209.554" x2="146.485" y2="210.369" stroke="#FF4A11" stroke-width="18" stroke-linecap="round"/>
<line x1="144.811" y1="143.543" x2="13.405" y2="252.45" stroke="#FF4A11" stroke-width="18" stroke-linecap="round"/>
<rect x="273.954" y="286.59" width="142" height="69" transform="rotate(179.649 273.954 286.59)" fill="#FF4A11"/>
<rect x="273.954" y="286.59" width="142" height="69" transform="rotate(179.649 273.954 286.59)" fill="#FF4A11"/>
<rect x="273.954" y="286.59" width="142" height="69" transform="rotate(179.649 273.954 286.59)" fill="#FF4A11"/>
<rect x="162.809" y="263.27" width="140" height="23" transform="rotate(179.649 162.809 263.27)" fill="#FF4A11"/>
<rect x="162.809" y="263.27" width="140" height="23" transform="rotate(179.649 162.809 263.27)" fill="#FF4A11"/>
<rect x="162.809" y="263.27" width="140" height="23" transform="rotate(179.649 162.809 263.27)" fill="#FF4A11"/>
<rect x="156.318" y="346.312" width="38" height="186" transform="rotate(179.649 156.318 346.312)" fill="#FF4A11"/>
<rect x="156.318" y="346.312" width="38" height="186" transform="rotate(179.649 156.318 346.312)" fill="#FF4A11"/>
<rect x="156.318" y="346.312" width="38" height="186" transform="rotate(179.649 156.318 346.312)" fill="#FF4A11"/>
<rect x="119.196" y="326.539" width="28" height="149" transform="rotate(179.649 119.196 326.539)" fill="#FF4A11"/>
<rect x="119.196" y="326.539" width="28" height="149" transform="rotate(179.649 119.196 326.539)" fill="#FF4A11"/>
<rect x="119.196" y="326.539" width="28" height="149" transform="rotate(179.649 119.196 326.539)" fill="#FF4A11"/>
<rect x="91.0557" y="303.711" width="27" height="104" transform="rotate(179.649 91.0557 303.711)" fill="#FF4A11"/>
<rect x="91.0557" y="303.711" width="27" height="104" transform="rotate(179.649 91.0557 303.711)" fill="#FF4A11"/>
<rect x="91.0557" y="303.711" width="27" height="104" transform="rotate(179.649 91.0557 303.711)" fill="#FF4A11"/>
<rect x="63.9211" y="281.877" width="24" height="60" transform="rotate(179.649 63.9211 281.877)" fill="#FF4A11"/>
<rect x="63.9211" y="281.877" width="24" height="60" transform="rotate(179.649 63.9211 281.877)" fill="#FF4A11"/>
<rect x="63.9211" y="281.877" width="24" height="60" transform="rotate(179.649 63.9211 281.877)" fill="#FF4A11"/>
</svg>
